<svg version="1.2" baseProfile="tiny-ps" xmlns="http://www.w3.org/2000/svg" viewBox="0 0 128 128" width="20" height="20">
	<title>New Project</title>
	<style>
		tspan { white-space:pre }
		.shp0 { fill: #f1f1a4 } 
	</style>
	<path id="Background" class="shp0" d="M117.45 68.66C116.41 68.14 115.23 67.88 113.91 67.88L50.21 67.88C47.64 67.88 44.84 68.59 41.81 70C38.79 71.42 36.44 73.14 34.76 75.17L15.09 98.83C13.88 100.22 13.27 101.54 13.27 102.77C13.27 103.97 13.79 104.82 14.82 105.34C15.86 105.86 17.04 106.12 18.37 106.12L82.06 106.12C84.64 106.12 87.44 105.41 90.46 104C93.48 102.58 95.84 100.86 97.52 98.83L117.19 75.17C118.39 73.78 119 72.46 119 71.23C119 70.03 118.48 69.18 117.45 68.66ZM95.06 41.24C92.48 38.61 89.4 37.29 85.81 37.29L53.96 37.29L53.96 35.38C53.96 31.72 52.67 28.57 50.1 25.94C47.52 23.31 44.44 22 40.85 22L22.11 22C18.52 22 15.44 23.31 12.86 25.94C10.29 28.57 9 31.72 9 35.38L9 92.74C9 92.89 9.01 93.14 9.03 93.48C9.05 93.82 9.06 94.07 9.06 94.23L9.35 93.87L29.08 70.21C31.46 67.34 34.66 64.97 38.68 63.07C42.7 61.18 46.54 60.24 50.21 60.24L98.92 60.24L98.92 50.68C98.92 47.01 97.63 43.87 95.06 41.24Z" />
</svg>