<svg version="1.2" baseProfile="tiny-ps" xmlns="http://www.w3.org/2000/svg" viewBox="0 0 128 128" width="20" height="20">
	<title>New Project</title>
	<style>
		tspan { white-space:pre }
		.shp0 { fill: #00a7ff } 
	</style>
	<path id="Layer 1" class="shp0" d="M35.2 33.91C32.2 33.91 29.65 35 27.55 37.18C25.45 39.35 24.4 41.99 24.4 45.1C24.4 48.21 25.45 50.85 27.55 53.02C29.65 55.2 32.2 56.29 35.2 56.29C38.2 56.29 40.75 55.2 42.85 53.02C44.95 50.85 46 48.21 46 45.1C46 41.99 44.95 39.35 42.85 37.18C40.75 35 38.2 33.91 35.2 33.91ZM80.2 43.24L51.4 73.06L42.4 63.74L24.4 82.39L24.4 93.57L103.6 93.57L103.6 67.47L80.2 43.24ZM110.27 27.01C110.62 27.38 110.8 27.82 110.8 28.32L110.8 99.16C110.8 99.67 110.62 100.11 110.27 100.48C109.91 100.84 109.49 101.03 109 101.03L19 101.03C18.51 101.03 18.09 100.84 17.73 100.48C17.38 100.11 17.2 99.67 17.2 99.16L17.2 28.32C17.2 27.82 17.38 27.38 17.73 27.01C18.09 26.64 18.51 26.46 19 26.46L109 26.46C109.49 26.46 109.91 26.64 110.27 27.01ZM115.36 21.74C113.59 19.91 111.47 19 109 19L19 19C16.52 19 14.41 19.91 12.64 21.74C10.88 23.56 10 25.76 10 28.32L10 99.16C10 101.73 10.88 103.92 12.64 105.75C14.41 107.57 16.52 108.49 19 108.49L109 108.49C111.47 108.49 113.59 107.57 115.36 105.75C117.12 103.92 118 101.73 118 99.16L118 28.32C118 25.76 117.12 23.56 115.36 21.74Z" />
</svg>