<svg version="1.2" baseProfile="tiny-ps" xmlns="http://www.w3.org/2000/svg" viewBox="0 0 128 128" width="20" height="20">
	<title>New Project</title>
	<style>
		tspan { white-space:pre }
		.shp0 { fill: #808080 } 
	</style>
	<path id="Layer 2" class="shp0" d="M81.11 13.03C80.56 12.47 79.86 11.92 79 11.37L79 39.31L106.66 39.31C106.11 38.44 105.56 37.73 105.02 37.18L81.11 13.03ZM73.14 45.23C72.05 44.12 71.5 42.78 71.5 41.2L71.5 9L24.62 9C23.06 9 21.73 9.55 20.64 10.66C19.55 11.76 19 13.1 19 14.68L19 109.39C19 110.97 19.55 112.31 20.64 113.41C21.73 114.52 23.06 115.07 24.62 115.07L103.37 115.07C104.94 115.07 106.27 114.52 107.36 113.41C108.45 112.31 109 110.97 109 109.39L109 46.88L77.12 46.88C75.56 46.88 74.23 46.33 73.14 45.23ZM85.97 91.81C85.62 92.16 85.17 92.34 84.63 92.34L43.37 92.34C42.83 92.34 42.38 92.16 42.03 91.81C41.68 91.45 41.5 91 41.5 90.45L41.5 86.66C41.5 86.11 41.68 85.65 42.03 85.3C42.38 84.94 42.83 84.77 43.37 84.77L84.63 84.77C85.17 84.77 85.62 84.94 85.97 85.3C86.32 85.65 86.5 86.11 86.5 86.66L86.5 90.45C86.5 91 86.32 91.45 85.97 91.81ZM85.97 76.66C85.62 77.01 85.17 77.19 84.63 77.19L43.37 77.19C42.83 77.19 42.38 77.01 42.03 76.66C41.68 76.3 41.5 75.85 41.5 75.29L41.5 71.51C41.5 70.95 41.68 70.5 42.03 70.14C42.38 69.79 42.83 69.61 43.37 69.61L84.63 69.61C85.17 69.61 85.62 69.79 85.97 70.14C86.32 70.5 86.5 70.95 86.5 71.51L86.5 75.29C86.5 75.85 86.32 76.3 85.97 76.66ZM85.97 61.5C85.62 61.86 85.17 62.04 84.63 62.04L43.37 62.04C42.83 62.04 42.38 61.86 42.03 61.5C41.68 61.15 41.5 60.69 41.5 60.14L41.5 56.35C41.5 55.8 41.68 55.35 42.03 54.99C42.38 54.64 42.83 54.46 43.37 54.46L84.63 54.46C85.17 54.46 85.62 54.64 85.97 54.99C86.32 55.35 86.5 55.8 86.5 56.35L86.5 60.14C86.5 60.69 86.32 61.15 85.97 61.5Z" />
</svg>